# xmcd
#
# Track frame offsets:
# 150
# 17198
# 34028
# 51467
# 68372
# 87896
# 107015
# 124689
# 142741
# 160210
# 180793
# 200049
# 219000
# 238441
# 256976
#
# Disc length: 3669 seconds
#
#
# Revision: 0
# Processed by: cddbd v1.5.1PL0 Copyright (c) Steve Scherf et al.
# Submitted via: FreeRIP 2.80 
#
DISCID=c50e530f
DTITLE=Γιαννακης Ιωαννιδης - ΑΡΧΕΙΟ 1
DYEAR=1900
DGENRE=
TTITLE0=ο πινοκλης
TTITLE1=το σιγαρεττο
TTITLE2=η διαφοριτσα
TTITLE3=τα μπαρμπερακια
TTITLE4=το αλανι
TTITLE5=το μορτακι
TTITLE6=πεισματαρα
TTITLE7=πω!πω! τρελλαθηκα
TTITLE8=ημουνα μορτης μια φορα
TTITLE9=θα λενε μη χειροτερα
TTITLE10=οι γλετζεδες
TTITLE11=ακου τι θελω σαν παντρευτουμε
TTITLE12=ο γαμος του μαναβη 1
TTITLE13=ο γαμος του μαναβη 2
TTITLE14=ποιο ειναι το γιατρικο
EXTD=submitted by Pinios_Blues@hotmail.com
EXTT0=
EXTT1=
EXTT2=
EXTT3=
EXTT4=
EXTT5=
EXTT6=
EXTT7=
EXTT8=
EXTT9=
EXTT10=
EXTT11=
EXTT12=
EXTT13=
EXTT14=
PLAYORDER=
